<svg viewBox="0 0 512 512" xml:space="preserve" xmlns="http://www.w3.org/2000/svg" enable-background="new 0 0 512 512"><path d="M337.978 162.264c.442.471.9.924 1.37 1.367a32.802 32.802 0 0 0 11.787 7.161 32.828 32.828 0 0 0 10.757 1.807c14.976 0 28.038-10.114 31.767-24.595a32.996 32.996 0 0 0 1.032-8.203c0-18.085-14.714-32.798-32.799-32.798s-32.798 14.713-32.798 32.798c0 2.78.348 5.54 1.033 8.204a32.659 32.659 0 0 0 7.851 14.259z" fill="#64558f" class="fill-000000"></path><path d="M418.117 360.018a4.686 4.686 0 0 0 0-9.372H122.933v-28.112h267.072a4.686 4.686 0 0 0 0-9.372h-21.946l61.951-159.307h-28.348a39.023 39.023 0 0 1-.582 1.554c-.038.098-.082.192-.121.29-.175.431-.354.861-.543 1.284-.082.188-.173.37-.258.555-.152.33-.306.662-.466.986-.1.202-.206.399-.309.599-.156.303-.312.606-.474.904-.113.205-.229.405-.344.608-.164.288-.327.575-.496.857-.122.203-.248.403-.374.603-.171.275-.343.55-.521.821-.132.201-.267.398-.4.596a34.415 34.415 0 0 1-.973 1.37 35.533 35.533 0 0 1-1.021 1.325c-.199.25-.403.496-.609.74a33.612 33.612 0 0 1-1.104 1.26c-.157.172-.314.344-.474.513a37.69 37.69 0 0 1-.683.702c-.16.162-.318.325-.48.485-.24.234-.485.464-.73.694-.158.148-.314.297-.477.443-.26.237-.527.467-.795.697-.151.131-.301.265-.455.393-.294.247-.596.486-.896.724-.133.104-.262.212-.395.315-.386.297-.777.587-1.173.871-.054.039-.105.079-.158.116a41.22 41.22 0 0 1-1.386.945c-.083.055-.169.106-.254.16-.381.244-.765.487-1.153.719-.155.092-.312.179-.469.27-.322.188-.644.374-.972.553-.186.102-.375.198-.561.295-.303.16-.606.319-.914.472-.203.101-.408.196-.613.294-.296.141-.593.281-.893.416-.215.097-.434.188-.65.282-.295.125-.589.25-.887.37a52.513 52.513 0 0 1-1.567.593 40.86 40.86 0 0 1-1.593.53 39.595 39.595 0 0 1-2.346.656c-.308.077-.617.148-.926.218-.243.054-.484.109-.729.159-.314.065-.63.124-.947.181-.242.044-.484.089-.729.13-.325.053-.652.099-.979.146-.237.033-.474.069-.713.099-.343.042-.687.075-1.031.109-.228.022-.454.049-.682.067-.381.031-.765.052-1.147.073-.193.01-.386.026-.58.034a41.909 41.909 0 0 1-3.482 0c-.193-.008-.387-.023-.579-.034a43.027 43.027 0 0 1-1.147-.073c-.229-.018-.455-.045-.682-.067-.346-.034-.689-.067-1.031-.109-.239-.029-.477-.066-.713-.099-.328-.047-.654-.092-.98-.146-.244-.041-.486-.086-.729-.13-.316-.058-.633-.116-.946-.181-.245-.05-.485-.105-.729-.159a42.92 42.92 0 0 1-.927-.218c-.242-.06-.482-.124-.723-.188a34.574 34.574 0 0 1-1.622-.468 39.065 39.065 0 0 1-2.483-.86 35.225 35.225 0 0 1-1.562-.632 34.718 34.718 0 0 1-1.544-.698c-.205-.098-.412-.194-.615-.296-.307-.151-.608-.31-.91-.469-.188-.099-.378-.195-.564-.297a42.472 42.472 0 0 1-.971-.553c-.156-.091-.314-.178-.469-.27a40.67 40.67 0 0 1-1.158-.722c-.082-.053-.168-.104-.25-.156-.467-.307-.93-.622-1.385-.945-.055-.039-.107-.081-.162-.121a39.708 39.708 0 0 1-1.169-.868c-.134-.104-.267-.213-.399-.319a41.14 41.14 0 0 1-.891-.719c-.156-.13-.308-.265-.461-.397a40.04 40.04 0 0 1-.791-.694c-.16-.146-.316-.294-.477-.443-.244-.23-.49-.459-.729-.695-.162-.159-.32-.321-.48-.482a41.477 41.477 0 0 1-.683-.705c-.16-.168-.316-.341-.473-.512a39.625 39.625 0 0 1-1.716-2.002 36.887 36.887 0 0 1-1.022-1.327c-.142-.19-.281-.382-.42-.575-.188-.263-.371-.53-.553-.797-.133-.195-.266-.39-.395-.586-.181-.274-.354-.553-.529-.832-.122-.198-.246-.394-.365-.593-.174-.29-.341-.583-.508-.877-.109-.195-.224-.389-.332-.586-.169-.311-.33-.627-.494-.943-.095-.187-.194-.371-.287-.559a40.527 40.527 0 0 1-.498-1.054c-.074-.163-.154-.322-.227-.486-.219-.49-.428-.985-.627-1.485l-.037-.088c-.205-.516-.4-1.037-.586-1.563H145.423v-52.478a4.686 4.686 0 0 0-4.686-4.685H75.141a4.686 4.686 0 0 0 0 9.371h60.911V313.16h-17.805a4.687 4.687 0 0 0-4.686 4.686v37.483a4.686 4.686 0 0 0 4.686 4.686h299.87zM174.473 200.711H343.15a4.686 4.686 0 0 1 0 9.372H174.473a4.687 4.687 0 0 1 0-9.372zm0 28.113H343.15a4.687 4.687 0 0 1 0 9.372H174.473a4.687 4.687 0 0 1 0-9.372zm0 28.113H343.15a4.686 4.686 0 0 1 0 9.371H174.473a4.686 4.686 0 1 1 0-9.371zM436.859 405.936h-96.535c9.741-2.84 16.883-11.844 16.883-22.49 0-12.918-10.51-23.428-23.428-23.428s-23.428 10.51-23.428 23.428c0 10.646 7.141 19.65 16.883 22.49H199.76c9.741-2.84 16.882-11.844 16.882-22.49 0-12.918-10.509-23.428-23.427-23.428s-23.428 10.51-23.428 23.428c0 10.646 7.141 19.65 16.883 22.49H90.134a4.687 4.687 0 0 0 0 9.372H436.86a4.686 4.686 0 1 0-.001-9.372z" fill="#64558f" class="fill-000000"></path></svg>